<?xml version="1.0" encoding="UTF-8" standalone="no"?>
<!DOCTYPE svg PUBLIC "-//W3C//DTD SVG 1.1//EN" "http://www.w3.org/Graphics/SVG/1.1/DTD/svg11.dtd">
<svg width="100%" height="100%" viewBox="0 0 309 421" version="1.1" xmlns="http://www.w3.org/2000/svg" xmlns:xlink="http://www.w3.org/1999/xlink" xml:space="preserve" xmlns:serif="http://www.serif.com/" style="fill-rule:evenodd;clip-rule:evenodd;stroke-linejoin:round;stroke-miterlimit:2;">
    <g transform="matrix(1,0,0,1,-7.55728,-2529.729516)">
        <g transform="matrix(1.377846,0,0,1.377846,10.312971,2823.045301)">
            <path d="M0,-120.74C0,-116.613 0.827,-112.678 2.317,-109.084L57.083,-109.084L57.083,-190.018L44.189,-190.018L44.189,-122.238L25.507,-122.238L25.507,-139.377L32.743,-139.377L32.743,-138.377L26.507,-138.377L26.507,-123.238L43.189,-123.238L43.189,-191.018L58.083,-191.018L58.083,-108.084L2.757,-108.084C7.577,-97.544 18.214,-90.2 30.54,-90.2L62.51,-90.2C66.58,-90.2 69.89,-93.52 69.89,-97.59L69.89,-103.76L91.51,-103.76C92.27,-103.76 93.01,-103.88 93.71,-104.09C94.43,-104.32 95.1,-104.65 95.71,-105.08C96.43,-105.57 97.05,-106.2 97.55,-106.91C97.98,-107.52 98.32,-108.2 98.55,-108.92C98.77,-109.62 98.89,-110.37 98.89,-111.14L98.89,-115.43L115.142,-115.43L115.142,-137.331L184.786,-137.331L184.786,-109.457L141.094,-109.457L141.094,-128.578L166.819,-128.578L166.819,-115.215L148.351,-115.215L148.351,-116.215L165.819,-116.215L165.819,-127.578L142.094,-127.578L142.094,-110.457L183.786,-110.457L183.786,-136.331L116.142,-136.331L116.142,-111.339L116.14,-111.339L116.14,-109.93C116.14,-104.16 120.84,-99.46 126.61,-99.45L198.92,-99.31L198.93,-99.31C200.07,-99.31 201.15,-99.75 201.95,-100.56C202.76,-101.37 203.21,-102.44 203.21,-103.58L203.21,-133.69C203.21,-147.02 192.36,-157.86 179.04,-157.86L168.38,-157.86L168.38,-157.879L114.641,-157.879L114.641,-179.834L72.678,-179.834L72.678,-191.018L115.641,-191.018L115.641,-184.719L80.318,-184.719L80.318,-185.719L114.641,-185.719L114.641,-190.018L73.678,-190.018L73.678,-180.834L115.641,-180.834L115.641,-158.879L168.38,-158.879L168.38,-161.12C168.38,-163.68 166.3,-165.76 163.74,-165.76L149.85,-165.76L149.85,-169.53C149.85,-172.09 147.77,-174.17 145.21,-174.17L140.93,-174.17L140.93,-182.12C140.93,-192.02 132.87,-200.07 122.98,-200.07L70.92,-200.07L70.92,-205.38C70.92,-208.41 68.45,-210.88 65.42,-210.88L49.77,-210.88C46.74,-210.88 44.27,-208.41 44.27,-205.38L44.27,-198.19L33.87,-198.19C30.05,-198.19 26.94,-195.08 26.94,-191.26L26.94,-154.09L20.41,-154.09C17.39,-154.09 14.93,-151.63 14.93,-148.61L14.93,-138.65L5.35,-138.65C2.4,-138.65 0,-136.25 0,-133.3L0,-120.74ZM85.13,25.05C83.81,25.05 82.53,25.19 81.29,25.46C81.289,25.46 81.288,25.46 81.288,25.461L81.288,49.343L73.285,49.343L73.285,58.219L45.139,58.219L45.139,74.272C46.402,74.93 47.276,76.237 47.276,77.756L47.276,79.489L54.482,79.489L54.482,77.832C54.482,74.452 57.233,71.701 60.614,71.701L71.838,71.701L71.838,66.362C71.838,60.068 76.959,54.948 83.253,54.948L90.902,54.948L90.902,37.383L92.902,37.383L92.902,79.489L100.419,79.489L100.419,74.678L125.748,74.678L125.748,76.678L102.419,76.678L102.419,81.489L91.902,81.489C88.721,81.489 86.133,84.077 86.133,87.257L86.133,90.13L117.978,90.13L117.978,82.275L112.879,82.275L112.879,78.337L113.879,78.337L113.879,81.275L118.978,81.275L118.978,90.13L134.23,90.13L134.23,74.9C134.23,67.73 129.81,61.56 123.55,58.98L123.547,58.979L123.547,69.306L130.077,69.306L130.077,85.009L129.077,85.009L129.077,70.306L122.547,70.306L122.547,58.619C120.818,58.02 118.959,57.7 117.03,57.7L111.91,57.7L111.91,33.36C111.91,30.18 109.33,27.6 106.16,27.6L101.2,27.6L101.2,-57.1L93.71,-57.1L93.71,-102.03C93.01,-101.85 92.27,-101.76 91.51,-101.76L86.13,-101.76L86.13,25.05L85.13,25.05ZM72.285,52.146L49.811,52.146L49.811,57.219L72.285,57.219L72.285,52.146ZM67,43.18L67,44.71L47.04,44.71C42.6,44.71 38.99,48.32 38.99,52.76L38.99,72.19L30.66,72.19C28.82,72.19 27.33,73.69 27.33,75.52L27.33,82.28L17.71,82.28C15.53,82.28 13.76,84.06 13.76,86.24L13.76,90.14L39.389,90.14L39.389,77.756C39.389,75.582 41.158,73.814 43.333,73.814C43.609,73.814 43.879,73.844 44.139,73.898L44.139,57.219L48.811,57.219L48.811,51.146L72.285,51.146L72.285,48.343L80.288,48.343L80.288,25.711C72.629,27.831 67,34.861 67,43.18M56.482,77.837L64.981,77.837L64.981,73.701L60.614,73.701C58.336,73.701 56.482,75.554 56.482,77.832L56.482,77.837ZM84.13,90.13L84.133,90.13L84.133,87.257C84.133,83.314 87.09,80.054 90.902,79.56L90.902,61.153L79.591,61.153L79.591,69.306L87.99,69.306L87.99,64.748L83.495,64.748L83.495,67.027L82.495,67.027L82.495,63.748L88.99,63.748L88.99,70.306L78.591,70.306L78.591,60.153L90.902,60.153L90.902,56.948L83.253,56.948C78.061,56.948 73.838,61.17 73.838,66.362L73.838,73.701L65.981,73.701L65.981,78.837L56.482,78.837L56.482,80.482L79.175,80.482L79.074,73.555L85.133,73.555L85.133,74.555L80.089,74.555L80.191,81.482L56.482,81.482L56.482,81.489L45.276,81.489L45.276,77.756C45.276,76.685 44.404,75.814 43.333,75.814C42.261,75.814 41.389,76.685 41.389,77.756L41.389,90.14L41.39,90.14L84.13,90.13ZM171.24,90.12L171.242,90.12L171.242,82.858L156.158,82.858L156.158,85.509L148.686,85.509L148.686,90.13L148.69,90.13L171.24,90.12ZM215.28,72.98L220.18,72.98L220.18,69.33C220.18,66.5 217.87,64.19 215.04,64.19L207.59,64.19C205.9,64.19 204.52,65.57 204.52,67.26L204.52,72.86C204.52,75.49 202.51,77.66 199.95,77.9L199.95,80.937L205.82,80.937L205.82,90.12L210.61,90.12L210.61,77.65C210.61,75.07 212.71,72.98 215.28,72.98M172.242,82.858L172.242,90.12L178.485,90.12L178.485,87.557C178.485,84.966 176.377,82.858 173.786,82.858L172.242,82.858ZM189.04,73.17L189.04,68.516L158.656,68.516C158.405,72.941 154.859,76.491 150.441,76.765C150.55,77.424 150.621,78.096 150.621,78.786L150.621,80.858L162.103,80.858L162.103,75.791L183.634,75.791L183.634,72.654L162.603,72.654L162.603,71.654L184.634,71.654L184.634,76.791L163.103,76.791L163.103,80.858L173.786,80.858C177.48,80.858 180.485,83.863 180.485,87.557L180.485,90.12L204.82,90.12L204.82,81.937L198.95,81.937L198.95,77.93L193.81,77.93C191.18,77.93 189.04,75.8 189.04,73.17M181.39,60.36L147.98,60.36L147.98,48.58C147.98,38.67 139.92,30.61 130.02,30.61L129.02,30.61L129.02,20.29C129.02,16.97 126.31,14.26 122.98,14.26L113.69,14.26L113.76,-4.59L113.76,-4.593L110.575,-4.593C108.837,-4.593 107.424,-3.18 107.424,-1.443L107.424,22.15L115.268,22.15C118.112,22.15 120.425,24.463 120.425,27.308L120.425,43.552C131.817,43.819 141.003,53.169 141.003,64.623L141.003,66.719C145.529,67.76 149.107,71.282 150.235,75.774C154.363,75.594 157.669,72.188 157.669,68.016L157.669,67.516L189.02,67.516C188.757,63.528 185.439,60.36 181.39,60.36M136.23,90.13L147.686,90.13L147.686,84.509L155.158,84.509L155.158,82.858L148.621,82.858L148.621,78.786C148.621,73.057 143.959,68.395 138.229,68.395L135.091,68.395C135.83,70.424 136.23,72.622 136.23,74.9L136.23,90.13ZM108.987,-113.43L108.987,-29.326L103.2,-29.326L103.2,25.6L106.16,25.6C110.44,25.6 113.91,29.08 113.91,33.36L113.91,55.7L117.03,55.7C124.56,55.7 131.09,60.06 134.24,66.39C134.241,66.392 134.241,66.393 134.242,66.395L138.229,66.395C138.833,66.395 139.422,66.453 140.003,66.537L140.003,64.623C140.003,53.553 130.997,44.546 119.925,44.546L119.425,44.546L119.425,27.308C119.425,25.015 117.56,23.15 115.268,23.15L106.424,23.15L106.424,-1.443C106.424,-3.731 108.287,-5.593 110.575,-5.593L113.76,-5.593L114.14,-113.43L108.987,-113.43ZM98.55,-104.95L98.55,-79.95L102.7,-79.95L102.7,-64.83L101.7,-64.83L101.7,-78.95L97.55,-78.95L97.55,-103.97C96.99,-103.5 96.38,-103.09 95.71,-102.76L95.71,-59.1L103.2,-59.1L103.2,-30.326L107.987,-30.326L107.987,-113.43L104.919,-113.43L104.919,-85.809L103.919,-85.809L103.919,-113.43L100.89,-113.43L100.89,-111.14C100.89,-108.77 100.01,-106.6 98.55,-104.95M63.248,-66.641L48.252,-66.641L48.252,-57.015L63.248,-57.015L63.248,-66.641ZM46.804,-37.925L30.762,-37.925L30.762,-28.956L22.18,-28.956L22.18,-12.642L42.416,-12.642L42.416,-25.518L42.904,-25.518L42.904,-25.542L46.804,-25.542L46.804,-37.925ZM157.011,-39.398C157.011,-38.095 158.072,-37.035 159.375,-37.035L194.272,-37.035L194.272,-41.978C194.272,-48.126 189.27,-53.128 183.122,-53.128L171.772,-53.128L171.772,-59.369L162.496,-59.369C159.471,-59.369 157.011,-56.909 157.011,-53.885L157.011,-39.398ZM146.446,-80.205L129.41,-80.205L129.41,-70.628L146.446,-70.628L146.446,-80.205ZM5.35,-140.65L12.93,-140.65L12.93,-148.61C12.93,-152.73 16.29,-156.09 20.41,-156.09L24.94,-156.09L24.94,-191.26C24.94,-196.18 28.94,-200.19 33.87,-200.19L42.27,-200.19L42.27,-205.38C42.27,-209.52 45.63,-212.88 49.77,-212.88L65.42,-212.88C69.56,-212.88 72.92,-209.52 72.92,-205.38L72.92,-202.07L122.98,-202.07C133.98,-202.07 142.93,-193.12 142.93,-182.12L142.93,-176.17L145.21,-176.17C148.87,-176.17 151.85,-173.19 151.85,-169.53L151.85,-167.76L163.74,-167.76C167.4,-167.76 170.38,-164.78 170.38,-161.12L170.38,-159.86L179.04,-159.86C193.47,-159.86 205.21,-148.12 205.21,-133.69L205.21,-103.58C205.21,-101.91 204.55,-100.33 203.37,-99.14C202.18,-97.96 200.61,-97.31 198.93,-97.31L198.92,-97.31L126.6,-97.45C122.2,-97.46 118.32,-99.76 116.11,-103.22L115.99,-69.46L115.99,-69.458L121.198,-69.458C123.689,-69.458 125.715,-67.431 125.715,-64.94C125.715,-63.551 126.845,-62.422 128.234,-62.422L131.553,-62.422C132.942,-62.422 134.071,-63.551 134.071,-64.94L134.071,-68.629L127.41,-68.629L127.41,-82.205L148.446,-82.205L148.446,-68.629L136.071,-68.629L136.071,-64.94C136.071,-62.448 134.044,-60.422 131.553,-60.422L128.234,-60.422C125.743,-60.422 123.715,-62.448 123.715,-64.94C123.715,-66.328 122.586,-67.458 121.198,-67.458L115.98,-67.458L115.86,-33.285L123.503,-33.285C126.626,-33.285 129.167,-35.826 129.167,-38.95C129.167,-43.176 132.605,-46.614 136.832,-46.614L155.011,-46.614L155.011,-53.885C155.011,-58.012 158.369,-61.369 162.496,-61.369L173.772,-61.369L173.772,-55.128L183.122,-55.128C190.373,-55.128 196.272,-49.229 196.272,-41.978L196.272,-35.035L159.375,-35.035C156.968,-35.035 155.011,-36.992 155.011,-39.398L155.011,-44.614L136.832,-44.614C133.708,-44.614 131.167,-42.073 131.167,-38.95C131.167,-34.723 127.728,-31.285 123.503,-31.285L115.85,-31.285L115.85,-31.28L115.7,12.26L122.98,12.26C127.41,12.26 131.02,15.86 131.02,20.29L131.02,28.64C141.56,29.16 149.98,37.91 149.98,48.58L149.98,58.36L181.39,58.36C186.71,58.36 191.04,62.69 191.04,68.02L191.04,73.17C191.04,74.69 192.28,75.93 193.81,75.93L199.45,75.93C201.14,75.93 202.52,74.56 202.52,72.86L202.52,67.26C202.52,64.47 204.8,62.19 207.59,62.19L215.04,62.19C218.98,62.19 222.18,65.39 222.18,69.33L222.18,74.98L215.28,74.98C213.81,74.98 212.61,76.18 212.61,77.65L212.61,92.12L11.76,92.14L11.76,86.24C11.76,82.96 14.43,80.28 17.71,80.28L25.33,80.28L25.33,75.52C25.33,72.58 27.72,70.19 30.66,70.19L36.99,70.19L36.99,52.76C36.99,47.22 41.5,42.71 47.04,42.71L65,42.71C65.25,32.16 73.65,23.59 84.13,23.07L84.13,-6.675L68.544,-6.675C63.342,-6.675 59.111,-10.907 59.111,-16.109C59.111,-20.208 55.776,-23.542 51.677,-23.542L48.804,-23.542L48.804,-23.518L44.416,-23.518L44.416,-10.642L20.18,-10.642L20.18,-30.956L28.762,-30.956L28.762,-39.925L48.804,-39.925L48.804,-25.542L51.677,-25.542C56.879,-25.542 61.111,-21.311 61.111,-16.109C61.111,-12.01 64.446,-8.675 68.544,-8.675L84.13,-8.675L84.13,-63.833L79.971,-63.833C79.298,-63.833 78.752,-63.286 78.752,-62.613C78.752,-60.839 77.307,-59.394 75.533,-59.394L65.248,-59.394L65.248,-55.014L46.252,-55.014L46.252,-68.641L65.248,-68.641L65.248,-61.394L75.533,-61.394C76.205,-61.394 76.752,-61.941 76.752,-62.613C76.752,-64.388 78.196,-65.833 79.971,-65.833L84.13,-65.833L84.13,-101.76L71.89,-101.76L71.89,-97.59C71.89,-92.41 67.68,-88.2 62.51,-88.2L30.54,-88.2C12.6,-88.2 -2,-102.8 -2,-120.74L-2,-133.3C-2,-137.35 1.3,-140.65 5.35,-140.65" style="fill:rgb(215,215,215);fill-rule:nonzero;"/>
        </g>
    </g>
</svg>
