<?xml version="1.0" encoding="UTF-8" standalone="no"?>
<!DOCTYPE svg PUBLIC "-//W3C//DTD SVG 1.1//EN" "http://www.w3.org/Graphics/SVG/1.1/DTD/svg11.dtd">
<svg width="100%" height="100%" viewBox="0 0 123 67" version="1.1" xmlns="http://www.w3.org/2000/svg" xmlns:xlink="http://www.w3.org/1999/xlink" xml:space="preserve" xmlns:serif="http://www.serif.com/" style="fill-rule:evenodd;clip-rule:evenodd;stroke-linejoin:round;stroke-miterlimit:2;">
    <g transform="matrix(1,0,0,1,-39.79806,-2883.352156)">
        <g transform="matrix(0.341434,0,0,0.341434,31.262219,2114.307057)">
            <g transform="matrix(4.166667,0,0,4.166667,29.162917,2256.569167)">
                <path d="M0,44.847L0,29.893C0,24.528 4.349,20.179 9.714,20.179L24.875,20.179L24.875,12.183C24.875,5.454 30.329,0 37.058,0L53.747,0C57.076,0 59.775,2.699 59.775,6.028L59.775,11.711L63.664,11.711C65.792,11.711 67.517,13.436 67.517,15.564L67.517,19.67L74.184,19.67C79.549,19.67 83.898,24.019 83.898,29.384L83.898,44.847L0,44.847Z" style="fill:rgb(171,233,0);fill-rule:nonzero;"/>
            </g>
            <g transform="matrix(4.166667,0,0,4.166667,374.575,2260.733333)">
                <path d="M0,42.848L-50.271,42.848L-50.271,29.98C-50.271,29.703 -50.495,29.48 -50.771,29.48L-74.632,29.48C-74.908,29.48 -75.132,29.703 -75.132,29.98L-75.132,37.447C-75.132,37.723 -74.908,37.947 -74.632,37.947L-58.481,37.947C-58.205,37.947 -57.981,37.723 -57.981,37.447L-57.981,34.525C-57.981,34.248 -58.205,34.025 -58.481,34.025C-58.758,34.025 -58.981,34.248 -58.981,34.525L-58.981,36.947L-74.132,36.947L-74.132,30.48L-51.271,30.48L-51.271,42.848L-81.898,42.848L-81.898,28.893C-81.898,27.792 -81.685,26.743 -81.311,25.773L-51.177,25.773C-50.9,25.773 -50.677,25.549 -50.677,25.273L-50.677,19.667L-45.334,19.667C-45.058,19.667 -44.834,19.444 -44.834,19.167C-44.834,18.891 -45.058,18.667 -45.334,18.667L-51.177,18.667C-51.453,18.667 -51.677,18.891 -51.677,19.167L-51.677,24.773L-80.86,24.773C-79.387,22.041 -76.5,20.179 -73.185,20.179L-57.024,20.179L-57.024,11.184C-57.024,10.067 -56.855,8.99 -56.549,7.971L-45.155,7.971L-45.155,11.227C-45.155,11.503 -44.932,11.727 -44.655,11.727L-19.59,11.727C-19.564,11.727 -19.542,11.716 -19.517,11.712L-19.235,11.712C-17.662,11.712 -16.382,12.992 -16.382,14.565L-16.382,18.667L-39.961,18.667C-40.237,18.667 -40.461,18.891 -40.461,19.167L-40.461,34.734C-40.461,35.01 -40.237,35.234 -39.961,35.234L-10.952,35.234C-10.676,35.234 -10.452,35.01 -10.452,34.734L-10.452,26.319C-10.452,26.042 -10.676,25.819 -10.952,25.819L-30.4,25.819C-30.677,25.819 -30.9,26.042 -30.9,26.319L-30.9,31.72C-30.9,31.996 -30.677,32.22 -30.4,32.22C-30.124,32.22 -29.9,31.996 -29.9,31.72L-29.9,26.819L-11.452,26.819L-11.452,34.234L-39.461,34.234L-39.461,19.667L-16.382,19.667L-16.382,19.671L-8.715,19.671C-3.909,19.671 0,23.58 0,28.385L0,42.848ZM-45.841,0L-29.152,0C-26.598,0 -24.505,1.922 -24.188,4.392L-54.705,4.392C-52.659,1.728 -49.452,0 -45.841,0M-44.655,6.971L-56.194,6.971C-55.969,6.42 -55.696,5.895 -55.39,5.392L-24.124,5.392L-24.124,10.727L-44.155,10.727L-44.155,7.471C-44.155,7.195 -44.379,6.971 -44.655,6.971M-8.715,17.671L-14.382,17.671L-14.382,14.565C-14.382,11.889 -16.56,9.712 -19.235,9.712L-22.124,9.712L-22.124,5.029C-22.124,1.154 -25.277,-2 -29.152,-2L-45.841,-2C-53.11,-2 -59.024,3.914 -59.024,11.184L-59.024,18.179L-73.185,18.179C-79.092,18.179 -83.898,22.986 -83.898,28.893L-83.898,44.848L2,44.848L2,28.385C2,22.478 -2.807,17.671 -8.715,17.671" style="fill:rgb(30,30,30);fill-rule:nonzero;"/>
            </g>
        </g>
    </g>
</svg>
