<?xml version="1.0" encoding="UTF-8" standalone="no"?>
<!DOCTYPE svg PUBLIC "-//W3C//DTD SVG 1.1//EN" "http://www.w3.org/Graphics/SVG/1.1/DTD/svg11.dtd">
<svg width="100%" height="100%" viewBox="0 0 50 52" version="1.1" xmlns="http://www.w3.org/2000/svg" xmlns:xlink="http://www.w3.org/1999/xlink" xml:space="preserve" xmlns:serif="http://www.serif.com/" style="fill-rule:evenodd;clip-rule:evenodd;stroke-linecap:round;stroke-linejoin:round;stroke-miterlimit:1.5;">
    <g transform="matrix(1,0,0,1,-425,-2600)">
        <path d="M461.63,2624.406L461.63,2635.573C461.63,2638.654 459.129,2641.156 456.047,2641.156L442.88,2641.156C439.799,2641.156 437.297,2638.654 437.297,2635.573L437.297,2624.406C437.297,2621.325 439.799,2618.823 442.88,2618.823L456.047,2618.823C459.129,2618.823 461.63,2621.325 461.63,2624.406Z" style="fill:rgb(255,241,241);stroke:white;stroke-width:21.67px;"/>
        <g transform="matrix(1,0,0,1,100,-100)">
            <path d="M359.404,2700C363.54,2700 367.507,2701.643 370.432,2704.568C373.357,2707.493 375,2711.46 375,2715.596L375,2750L325,2750L325,2700L359.404,2700Z" style="fill:rgb(204,21,2);"/>
        </g>
        <g transform="matrix(0.089697,0,0,1,416.781843,-212.5)">
            <path d="M422.686,2825C465.385,2825 500,2828.105 500,2831.935C500,2839.333 500,2850 500,2850L225,2850L225,2825L422.686,2825Z" style="fill:white;fill-opacity:0;stroke:white;stroke-width:2.82px;"/>
        </g>
    </g>
</svg>
