<?xml version="1.0" encoding="UTF-8" standalone="no"?>
<!DOCTYPE svg PUBLIC "-//W3C//DTD SVG 1.1//EN" "http://www.w3.org/Graphics/SVG/1.1/DTD/svg11.dtd">
<svg width="100%" height="100%" viewBox="0 0 56 131" version="1.1" xmlns="http://www.w3.org/2000/svg" xmlns:xlink="http://www.w3.org/1999/xlink" xml:space="preserve" xmlns:serif="http://www.serif.com/" style="fill-rule:evenodd;clip-rule:evenodd;stroke-linejoin:round;stroke-miterlimit:2;">
    <g transform="matrix(1,0,0,1,-1000,-2350)">
        <g transform="matrix(0.341434,0,0,0.341434,862.681615,1603.037832)">
            <g transform="matrix(4.166667,0,0,4.166667,481.138034,2430.259167)">
                <path d="M0,-12.03L0,0C10.63,0 19.24,-5.38 19.24,-12.03L0,-12.03Z" style="fill:rgb(204,21,2);fill-rule:nonzero;"/>
            </g>
            <g transform="matrix(4.166667,0,0,4.166667,406.346368,2380.134167)">
                <path d="M0,-11.23C0,-5.03 8.04,0 17.95,0L17.95,-11.23L0,-11.23Z" style="fill:rgb(255,194,0);fill-rule:nonzero;"/>
            </g>
            <g transform="matrix(4.166667,0,0,4.166667,481.138034,2334.150417)">
                <path d="M0,-10.09L0,0C8.91,0 16.13,-4.52 16.13,-10.09L0,-10.09Z" style="fill:rgb(204,21,2);fill-rule:nonzero;"/>
            </g>
            <g transform="matrix(4.166667,0,0,4.166667,430.721784,2292.10875)">
                <path d="M0,-7.78C0,-3.48 5.42,0 12.1,0L12.1,-7.78L0,-7.78Z" style="fill:rgb(255,194,0);fill-rule:nonzero;"/>
            </g>
            <g transform="matrix(4.166667,0,0,4.166667,481.138034,2259.6925)">
                <path d="M0,-5.34L0,0C5.19,-0.04 9.37,-2.41 9.37,-5.34L0,-5.34Z" style="fill:rgb(204,21,2);fill-rule:nonzero;"/>
            </g>
            <g transform="matrix(4.166667,0,0,4.166667,481.138034,2237.443333)">
                <path d="M0,-11.367C-2.52,-11.367 -4.563,-8.822 -4.563,-5.684C-4.563,-2.545 -2.52,0 0,0L0,-11.367Z" style="fill:rgb(255,194,0);fill-rule:nonzero;"/>
            </g>
            <g transform="matrix(4.166667,0,0,4.166667,476.973451,2380.48125)">
                <path d="M0,-0.667L0,-9.879L-15.87,-9.879C-15.066,-4.903 -8.332,-0.961 0,-0.667M19.165,1.351L2,1.351L2,11.364C11.044,11.067 18.356,6.768 19.165,1.351M16.039,-19.775L2,-19.775L2,-11.705C9.324,-11.994 15.243,-15.429 16.039,-19.775M9.128,-32.896L2,-32.896L2,-29.596C5.434,-29.844 8.301,-31.197 9.128,-32.896M0,-44.074C-1.479,-43.505 -2.563,-41.705 -2.563,-39.579C-2.563,-37.453 -1.479,-35.652 0,-35.083L0,-44.074ZM0,-21.804L0,-27.556L-9.975,-27.556C-9.205,-24.533 -5.025,-22.093 0,-21.804M-17.95,-10.879C-17.95,-11.432 -17.503,-11.879 -16.95,-11.879L0,-11.879L0,-19.808C-6.859,-20.141 -12.101,-23.859 -12.101,-28.556C-12.101,-29.108 -11.653,-29.556 -11.101,-29.556L0,-29.556L0,-33.01C-2.591,-33.578 -4.563,-36.304 -4.563,-39.579C-4.563,-43.264 -2.067,-46.262 1,-46.262C1.553,-46.262 2,-45.814 2,-45.262L2,-34.896L10.369,-34.896C10.922,-34.896 11.369,-34.448 11.369,-33.896C11.369,-30.588 7.327,-27.927 2,-27.593L2,-21.775L17.13,-21.775C17.683,-21.775 18.13,-21.328 18.13,-20.775C18.13,-14.879 10.979,-10.057 2,-9.718L2,-0.649L20.239,-0.649C20.792,-0.649 21.239,-0.202 21.239,0.351C21.239,7.318 12.694,13.009 2,13.348L2,45.595L0,45.595L0,1.318C-9.983,0.979 -17.95,-4.354 -17.95,-10.879" style="fill:rgb(30,30,30);fill-rule:nonzero;"/>
            </g>
        </g>
    </g>
</svg>
